Coordinates
version=1
nRows=11
nColumns=40
inDegrees=yes

Units are S.I. units (second, meters, Newtons, ...)
Angles are in degrees.

endheader
time	pelvis_tilt	pelvis_list	pelvis_rotation	pelvis_tx	pelvis_ty	pelvis_tz	hip_flexion_r	hip_adduction_r	hip_rotation_r	knee_angle_r	knee_angle_r_beta	ankle_angle_r	subtalar_angle_r	mtp_angle_r	hip_flexion_l	hip_adduction_l	hip_rotation_l	knee_angle_l	knee_angle_l_beta	ankle_angle_l	subtalar_angle_l	mtp_angle_l	lumbar_extension	lumbar_bending	lumbar_rotation	arm_flex_r	arm_add_r	arm_rot_r	elbow_flex_r	pro_sup_r	wrist_flex_r	wrist_dev_r	arm_flex_l	arm_add_l	arm_rot_l	elbow_flex_l	pro_sup_l	wrist_flex_l	wrist_dev_l
     37.65000000	     -4.56700393	     -5.79310284	      1.78728105	      0.95292092	      0.93012871	      0.48426981	     12.10070079	      4.60289209	    -18.31328972	     15.03036778	     15.03036778	      9.44146402	      0.73133542	     -3.20951125	     28.93939541	    -12.97357114	      0.48707052	     65.50126747	     65.50126747	      6.79186737	    -16.57551730	      8.11215029	     -8.23352089	      7.60497873	      3.68477436	      8.72538646	    -14.34241732	     -3.65759417	     34.58380983	     45.79559543	      0.00000000	      0.00000000	     15.76713805	     -7.89347151	      0.67505934	     37.75700007	     45.31334549	      0.00000000	      0.00000000
     37.66235714	     -4.86225928	     -5.68673398	      1.98768218	      0.95077628	      0.93064735	      0.48517602	     11.60544822	      4.67029874	    -18.48406649	     14.22101510	     14.22101510	      9.39985531	      1.01353412	     -3.20245381	     30.75170756	    -12.94132140	      0.25527041	     63.85036325	     63.85036325	      6.84908232	    -17.14433217	      8.13714123	     -8.22857183	      7.31768151	      3.56501369	     11.39184156	    -14.41754402	     -3.76154272	     35.66216041	     45.78034523	      0.00000000	      0.00000000	     14.44387754	     -7.71836542	      0.95995258	     36.07045540	     45.26918392	      0.00000000	      0.00000000
     37.67471429	     -5.04924084	     -5.58003689	      2.13589017	      0.94874311	      0.93123026	      0.48608102	     10.96572420	      4.75322632	    -18.62767057	     13.35921791	     13.35921791	      9.31090962	      1.38602970	     -3.33031426	     32.21672705	    -12.91027560	     -0.08199420	     61.86464816	     61.86464816	      6.94091027	    -17.53677460	      8.27369735	     -8.36343103	      7.05005496	      3.57761102	     14.00976618	    -14.54859215	     -3.78469464	     36.82047588	     45.75695823	      0.00000000	      0.00000000	     13.32884776	     -7.52155434	      1.36691963	     33.89872737	     45.22090145	      0.00000000	      0.00000000
     37.68707143	     -5.25094171	     -5.44190244	      2.28352703	      0.94674030	      0.93168200	      0.48683966	     10.35770505	      4.79608224	    -18.73084365	     12.51341380	     12.51341380	      9.13325902	      1.66215296	     -3.80231109	     33.50977719	    -12.75136265	     -0.40920717	     59.57195192	     59.57195192	      7.14560977	    -17.77971170	      8.83657612	     -8.47964966	      6.73327962	      3.91649051	     16.24518787	    -14.90884792	     -3.66465905	     38.18892811	     45.71730014	      0.00000000	      0.00000000	     12.77344304	     -7.11545095	      2.11350401	     30.85479694	     45.17118288	      0.00000000	      0.00000000
     37.69942857	     -5.46278554	     -5.30487162	      2.46095932	      0.94475809	      0.93200412	      0.48735599	      9.80582305	      4.82344004	    -18.77210123	     11.74901454	     11.74901454	      9.14031883	      1.83236896	     -3.73968640	     34.64638703	    -12.48092076	     -0.66120519	     56.95302141	     56.95302141	      7.29603381	    -17.88151548	      9.27911443	     -8.61821021	      6.44827724	      3.84209209	     18.68556761	    -15.04226305	     -3.82045221	     39.64159653	     45.68684429	      0.00000000	      0.00000000	     11.39676602	     -6.99823439	      2.34789599	     29.70249253	     45.12734348	      0.00000000	      0.00000000
     37.71178571	     -5.69397902	     -5.17173940	      2.61306733	      0.94280998	      0.93214869	      0.48772094	      9.32906999	      4.82582825	    -18.81209075	     11.08842418	     11.08842418	      9.18382929	      2.00181942	     -3.74407483	     35.62218476	    -12.13840061	     -0.87191460	     54.00834304	     54.00834304	      7.47468770	    -17.74496770	      9.66913947	     -8.70497585	      6.16465045	      3.84307535	     21.02389108	    -15.20231990	     -3.94940259	     41.07217003	     45.65475261	      0.00000000	      0.00000000	     10.11905177	     -6.86844239	      2.60214868	     28.51447430	     45.07942715	      0.00000000	      0.00000000
     37.72414286	     -5.92399176	     -5.05913834	      2.78935104	      0.94088827	      0.93210177	      0.48781640	      8.88128336	      4.82110426	    -18.88356618	     10.48039485	     10.48039485	      9.23810633	      2.16165463	     -3.81120198	     36.44353381	    -11.67548883	     -0.90626812	     50.76853772	     50.76853772	      7.68107914	    -17.41604518	      9.88305073	     -8.79107885	      5.94398393	      3.72167879	     23.34541570	    -15.32635339	     -4.06499360	     42.70494271	     45.61397859	      0.00000000	      0.00000000	      8.87050958	     -6.75727265	      2.92185754	     27.19026760	     45.02213883	      0.00000000	      0.00000000
     37.73650000	     -6.17701185	     -4.97731125	      2.97690179	      0.93899487	      0.93182912	      0.48767884	      8.51274755	      4.81588579	    -18.96329517	      9.97994957	      9.97994957	      9.34203534	      2.28261241	     -3.97173828	     37.13707787	    -11.16083721	     -0.82494137	     47.24650810	     47.24650810	      7.81646039	    -16.76005795	      9.74896142	     -8.84413525	      5.76934207	      3.60823927	     25.53398702	    -15.49662354	     -4.16618100	     44.61151974	     45.56161420	      0.00000000	      0.00000000	      7.68090751	     -6.63139124	      3.33798193	     25.83301831	     44.95099178	      0.00000000	      0.00000000
     37.74885714	     -6.44920953	     -4.87652796	      3.13769547	      0.93720266	      0.93134883	      0.48737108	      8.20617765	      4.76581970	    -18.98214036	      9.56866675	      9.56866675	      9.40082016	      2.28402619	     -4.46622586	     37.56970692	    -10.60497253	     -0.75091550	     43.26697956	     43.26697956	      7.21174386	    -15.98888941	      7.48388361	     -8.85869464	      5.58592480	      4.10748199	     26.74744698	    -16.26774895	     -4.21505895	     48.12546970	     45.45069448	      0.00000000	      0.00000000	      6.92132036	     -6.45915525	      4.97770420	     24.18466186	     44.72571188	      0.00000000	      0.00000000
     37.76121429	     -6.71574771	     -4.77504242	      3.31214021	      0.93549219	      0.93075353	      0.48687384	      7.95190846	      4.68490362	    -18.96053228	      9.30299282	      9.30299282	      9.66522767	      2.22204329	     -4.52913663	     37.93520205	     -9.99690298	     -0.55597473	     39.32213594	     39.32213594	      7.54002628	    -14.49221666	      7.49335062	     -8.84742138	      5.39474557	      3.90470435	     28.96597778	    -16.30945892	     -4.43290037	     49.79195525	     45.41443022	      0.00000000	      0.00000000	      5.51572871	     -6.45505020	      5.26862447	     23.56305635	     44.66011091	      0.00000000	      0.00000000
     37.77357143	     -7.06640788	     -4.81423024	      3.51118126	      0.93381794	      0.92976753	      0.48618446	      7.85418097	      4.71669306	    -18.97985558	      9.15810471	      9.15810471	      9.97432193	      2.10663229	     -4.64656714	     38.34779992	     -9.47032480	     -0.20269351	     35.41647196	     35.41647196	      7.92390110	    -12.82885233	      7.70862128	     -8.67878905	      5.38845106	      4.14400547	     30.99519644	    -16.79415120	     -4.65628259	     50.97995280	     45.39362711	      0.00000000	      0.00000000	      4.31733465	     -6.28769083	      5.38628472	     23.12528732	     44.62015649	      0.00000000	      0.00000000
